<?xml version="1.0" encoding="UTF-8"?>
<svg id="Layer_1" xmlns="http://www.w3.org/2000/svg" xmlns:xlink="http://www.w3.org/1999/xlink" version="1.1" viewBox="0 0 509.9 143.7">
  <!-- Generator: Adobe Illustrator 29.6.0, SVG Export Plug-In . SVG Version: 2.1.1 Build 207)  -->
  <defs>
    <style>
      .st0, .st1, .st2, .st3, .st4, .st5, .st6 {
        fill: none;
      }

      .st1 {
        stroke-miterlimit: 4;
        stroke-width: 6px;
      }

      .st1, .st2, .st5 {
        stroke-linecap: round;
      }

      .st1, .st3, .st5 {
        stroke: #31365e;
      }

      .st2 {
        stroke-linejoin: round;
        stroke-width: 12px;
      }

      .st2, .st4, .st6 {
        stroke: #00b2c0;
      }

      .st3 {
        stroke-miterlimit: 4;
        stroke-width: 6px;
      }

      .st4 {
        stroke-width: 14px;
      }

      .st5 {
        stroke-width: 6px;
      }

      .st7 {
        fill: #00b2c0;
      }

      .st6 {
        stroke-miterlimit: 4;
        stroke-width: 13px;
      }

      .st8 {
        clip-path: url(#clippath);
      }
    </style>
    <clipPath id="clippath">
      <rect class="st0" x="37.8" y="11.8" width="45.3" height="17.7"/>
    </clipPath>
  </defs>
  <g class="st8">
    <path class="st7" d="M81.7,15.4c-1.2-2.1-3.8-3.4-6.8-3.4-6.9,0-11.8,6.3-14.2,10.3-2.4-4-7.3-10.3-14.2-10.3s-7.6,2.6-7.6,6.2c0,6.3,7.2,10.5,21.5,10.5s22-5.3,22-10.4c0-1-.2-2-.8-2.9ZM46.3,21.7c-2.4-1.2-3.3-2.6-3.3-3.5s1.4-2,3.4-2c4.7,0,8.4,4.7,10.4,7.9-5.4-.3-8.6-1.4-10.5-2.4ZM77.9,19.2c-1.2,2.1-5.4,4.3-13.4,4.9,2-3.2,5.8-7.9,10.4-7.9s2.8.7,3.2,1.3c.3.5.2,1.1-.1,1.7Z"/>
  </g>
  <path class="st4" d="M38.4,120.8V35.2"/>
  <path class="st5" d="M20.4,35.2h82.9"/>
  <path class="st2" d="M467,64.3l23.9,18.1-24.1,17.9"/>
  <path class="st7" d="M140.9,42.8c6.4,0,12,1,16.9,3,4.9,2,9.2,4.9,12.8,8.7l-8.7,11.6c-3-3.1-6.2-5.5-9.6-7-3.4-1.6-7.4-2.4-11.7-2.4s-4.7.3-6.3.8c-1.6.6-2.7,1.3-3.4,2.3-.7,1-1,2.1-1,3.3s.7,2.7,2,3.7c1.4,1,3.6,1.9,6.6,2.6l11.6,2.6c6.9,1.6,11.9,3.9,15.1,7,3.2,3.1,4.8,7.1,4.8,12.2s-1.3,9-3.8,12.4c-2.5,3.4-5.9,5.9-10.3,7.6-4.4,1.7-9.4,2.5-15,2.5s-9-.5-13.1-1.5c-4.2-1-7.9-2.5-11.3-4.3-3.3-1.9-6.1-4-8.4-6.5l8.7-12c1.7,2,3.9,3.8,6.4,5.4,2.5,1.6,5.3,2.8,8.4,3.7,3,.9,6.1,1.4,9.2,1.4s4.5-.2,6.1-.7c1.6-.5,2.8-1.2,3.6-2.2.8-1,1.2-2.1,1.2-3.4s-.5-2.7-1.6-3.7c-1-1-3-1.9-5.9-2.6l-12.7-2.8c-3.9-.9-7.3-2.1-10.4-3.6-3-1.5-5.4-3.5-7.1-6-1.7-2.5-2.6-5.7-2.6-9.6s1.2-8.1,3.5-11.5c2.4-3.4,5.8-6,10.2-8,4.4-1.9,9.8-2.9,16-2.9Z"/>
  <path class="st7" d="M203.7,113.7c-6.1,0-11.6-1.4-16.3-4.1-4.8-2.7-8.5-6.7-11.1-12-2.6-5.3-4-11.7-4-19.3s1.4-13.8,4.2-19.1c2.8-5.3,6.8-9.4,12-12.2,5.2-2.8,11.3-4.3,18.3-4.3s14.1,1.4,18.9,4.2c4.8,2.8,8.5,7.3,11.2,13.4l-16.6,6.6c-.9-3.5-2.5-6.1-4.8-7.7-2.3-1.6-5.1-2.4-8.6-2.4s-6.3.8-8.8,2.5c-2.4,1.6-4.3,4-5.5,7.2-1.3,3.2-1.9,7.1-1.9,11.7s.6,8.9,1.9,12.2c1.3,3.3,3.2,5.7,5.7,7.3,2.5,1.6,5.7,2.3,9.4,2.3s3.9-.2,5.5-.7c1.7-.5,3.1-1.2,4.4-2.1,1.3-.9,2.2-2.1,2.9-3.5.7-1.4,1-3.1,1-5.1v-1h-15.8v-12h31v37.1h-12.2l-1.4-16.2,2.9,2.5c-1.5,4.7-4.1,8.4-7.9,10.9-3.8,2.5-8.7,3.8-14.6,3.8Z"/>
  <path class="st7" d="M244.6,112.7V43.9h53.6v13.9h-35.7v14h28.4v13h-28.4v14.1h37v13.9h-55Z"/>
  <path class="st7" d="M332.2,113.7c-6.1,0-11.6-1.4-16.3-4.1-4.8-2.7-8.5-6.7-11.1-12-2.6-5.3-4-11.7-4-19.3s1.4-13.8,4.2-19.1c2.8-5.3,6.8-9.4,12-12.2,5.2-2.8,11.3-4.3,18.3-4.3s14.1,1.4,18.9,4.2c4.8,2.8,8.5,7.3,11.2,13.4l-16.6,6.6c-.9-3.5-2.5-6.1-4.8-7.7-2.3-1.6-5.1-2.4-8.6-2.4s-6.3.8-8.8,2.5c-2.4,1.6-4.3,4-5.5,7.2-1.3,3.2-1.9,7.1-1.9,11.7s.6,8.9,1.9,12.2c1.3,3.3,3.2,5.7,5.7,7.3,2.5,1.6,5.7,2.3,9.4,2.3s3.9-.2,5.5-.7c1.7-.5,3.1-1.2,4.4-2.1,1.3-.9,2.2-2.1,2.9-3.5.7-1.4,1-3.1,1-5.1v-1h-15.8v-12h31v37.1h-12.2l-1.4-16.2,2.9,2.5c-1.5,4.7-4.1,8.4-7.9,10.9-3.8,2.5-8.7,3.8-14.6,3.8Z"/>
  <path class="st7" d="M403.9,42.8c7,0,13,1.4,18,4.2,5,2.8,8.9,6.9,11.6,12.1,2.7,5.3,4.1,11.6,4.1,19.1s-1.4,13.8-4.1,19.1c-2.7,5.3-6.6,9.3-11.6,12.1-5,2.8-11,4.2-18,4.2s-13-1.4-18-4.2c-5.1-2.8-9-6.9-11.7-12.1-2.7-5.3-4.1-11.7-4.1-19.1s1.4-13.8,4.1-19.1c2.7-5.3,6.6-9.3,11.7-12.1,5.1-2.8,11.1-4.2,18-4.2ZM403.9,56.9c-3.3,0-6.1.8-8.4,2.4-2.3,1.6-4,4-5.2,7.1-1.2,3.2-1.8,7.1-1.8,11.8s.6,8.6,1.8,11.8c1.2,3.2,2.9,5.6,5.2,7.2,2.3,1.6,5.1,2.4,8.4,2.4s6.1-.8,8.4-2.4c2.3-1.6,4-4,5.2-7.2,1.2-3.2,1.8-7.1,1.8-11.8s-.6-8.7-1.8-11.8c-1.2-3.2-2.9-5.5-5.2-7.1-2.3-1.6-5.1-2.4-8.4-2.4Z"/>
  <path class="st1" d="M20.4,119.1l82.9-.3"/>
  <path class="st5" d="M103.1,57.4v-20.5"/>
  <path class="st5" d="M103.1,117.7v-20.6"/>
  <line class="st6" x1="17.4" y1="80.8" x2="106.3" y2="80.8"/>
  <line class="st6" x1="334.4" y1="80.8" x2="384.7" y2="80.8"/>
  <line class="st6" x1="425.5" y1="80.8" x2="483.9" y2="80.8"/>
  <path class="st3" d="M20.5,120.8V35.8"/>
</svg>