<svg xmlns="http://www.w3.org/2000/svg" xmlns:xlink="http://www.w3.org/1999/xlink" width="600" zoomAndPan="magnify" viewBox="0 0 450 449.999984" height="600" preserveAspectRatio="xMidYMid meet" version="1.2"><defs><clipPath id="d9367f144d"><path d="M 153 53.144531 L 284 53.144531 L 284 104 L 153 104 Z M 153 53.144531 "/></clipPath></defs><g id="410a3d0edd"><g clip-rule="nonzero" clip-path="url(#d9367f144d)"><path style=" stroke:none;fill-rule:nonzero;fill:#00b2c0;fill-opacity:1;" d="M 280.894531 63.753906 C 277.261719 57.453125 269.699219 53.695312 260.675781 53.695312 C 240.132812 53.695312 225.574219 72.4375 218.425781 84.269531 C 211.261719 72.453125 196.707031 53.8125 176.210938 53.8125 C 163.210938 53.8125 153.777344 61.636719 153.777344 72.25 C 153.777344 91.070312 175.03125 103.351562 217.753906 103.351562 C 260.476562 103.351562 283.113281 87.566406 283.113281 72.40625 C 283.109375 69.390625 282.449219 66.441406 280.894531 63.753906 Z M 175.984375 82.496094 C 168.804688 78.804688 166.246094 74.664062 166.246094 72.015625 C 166.246094 68.625 170.433594 66.167969 176.207031 66.167969 C 190.113281 66.167969 201.117188 79.984375 207.09375 89.605469 C 191.078125 88.578125 181.464844 85.316406 175.984375 82.496094 Z M 269.671875 75.167969 C 266.054688 81.429688 253.726562 88.066406 229.847656 89.601562 C 235.875 79.984375 246.929688 66.171875 260.671875 66.171875 C 265.992188 66.171875 269.023438 68.144531 270.09375 69.992188 C 270.941406 71.460938 270.800781 73.203125 269.671875 75.167969 Z M 269.671875 75.167969 "/></g><path style="fill:none;stroke-width:31;stroke-linecap:butt;stroke-linejoin:miter;stroke:#00b2c0;stroke-opacity:1;stroke-miterlimit:4;" d="M -0.000805893 15.499294 L 337.900262 15.499294 " transform="matrix(0,-0.75,0.75,0,140.863812,375.792364)"/><path style="fill:none;stroke-width:25;stroke-linecap:round;stroke-linejoin:miter;stroke:#31365e;stroke-opacity:1;stroke-miterlimit:4;" d="M 12.500494 12.500828 L 338.354686 12.500828 " transform="matrix(0.75,0,0,0.75,90.241818,112.995474)"/><path style="fill:none;stroke-width:31;stroke-linecap:butt;stroke-linejoin:miter;stroke:#00b2c0;stroke-opacity:1;stroke-miterlimit:4;" d="M 0.000494084 15.501347 L 303.72949 15.501347 " transform="matrix(0.749486,0,0,0.749486,99.616817,190.20227)"/><path style="fill:none;stroke-width:31;stroke-linecap:round;stroke-linejoin:round;stroke:#00b2c0;stroke-opacity:1;stroke-miterlimit:4;" d="M 241.728664 -30.999272 L 303.72949 15.501347 L 241.728664 62.001967 " transform="matrix(0.749486,0,0,0.749486,99.616817,190.20227)"/><path style="fill:none;stroke-width:25;stroke-linecap:butt;stroke-linejoin:miter;stroke:#31365e;stroke-opacity:1;stroke-miterlimit:4;" d="M 0.00161583 12.499378 L 337.00685 12.499378 " transform="matrix(0,-0.75,0.75,0,90.238748,372.712149)"/><path style="fill:none;stroke-width:25;stroke-linecap:round;stroke-linejoin:miter;stroke:#31365e;stroke-opacity:1;stroke-miterlimit:4;" d="M 12.500563 12.498097 L 338.356385 12.500278 " transform="matrix(0.749996,-0.00239057,0.00239057,0.749996,90.211936,361.410265)"/><path style="fill:none;stroke-width:25;stroke-linecap:round;stroke-linejoin:miter;stroke:#31365e;stroke-opacity:1;stroke-miterlimit:4;" d="M 12.498826 12.500779 L 59.363413 12.500779 " transform="matrix(0,-0.75,0.75,0,334.632229,172.354587)"/><path style="fill:none;stroke-width:25;stroke-linecap:round;stroke-linejoin:miter;stroke:#31365e;stroke-opacity:1;stroke-miterlimit:4;" d="M 12.500235 12.499803 L 188.453374 12.499803 " transform="matrix(0,-0.75,0.75,0,334.632961,375.71502)"/></g></svg>